<svg width="81" height="80" viewBox="0 0 81 80" fill="none" xmlns="http://www.w3.org/2000/svg">
<path d="M40.5 0C18.1373 0 0 18.1339 0 40.5C0 58.3942 11.6032 73.575 27.6986 78.9311C29.7202 79.3057 30.375 78.0502 30.375 76.9837V69.444C19.1092 71.8942 16.7636 64.665 16.7636 64.665C14.9209 59.9839 12.2648 58.7385 12.2648 58.7385C8.58938 56.2241 12.5449 56.2781 12.5449 56.2781C16.6117 56.5616 18.7515 60.453 18.7515 60.453C22.3628 66.6428 28.2251 64.854 30.537 63.8179C30.8981 61.2023 31.9478 59.4135 33.1088 58.4044C24.1144 57.375 14.6576 53.9021 14.6576 38.3872C14.6576 33.9626 16.2405 30.3514 18.8291 27.5164C18.4106 26.4937 17.0235 22.3729 19.224 16.7974C19.224 16.7974 22.626 15.7106 30.3649 20.9486C33.5947 20.0509 37.0575 19.602 40.5 19.5851C43.9425 19.602 47.4086 20.0509 50.6452 20.9486C58.3774 15.7106 61.7726 16.7974 61.7726 16.7974C63.9765 22.3763 62.5894 26.4971 62.1709 27.5164C64.7696 30.3514 66.339 33.966 66.339 38.3872C66.339 53.9426 56.8654 57.3683 47.8474 58.3706C49.2986 59.6261 50.625 62.0899 50.625 65.8699V76.9837C50.625 78.0604 51.273 79.326 53.3284 78.9277C69.4102 73.5649 81 58.3875 81 40.5C81 18.1339 62.8661 0 40.5 0Z" fill="black"/>
</svg>
